<svg width="245" height="68" viewBox="0 0 245 68" fill="none" xmlns="http://www.w3.org/2000/svg">
<ellipse cx="206.279" cy="34" rx="38.7213" ry="34" fill="#202846"/>
<ellipse cx="38.7213" cy="34" rx="38.7213" ry="34" fill="#202846"/>
<rect x="40.8334" width="168.966" height="68" fill="#202846"/>
<path d="M45.7687 27.976H38.0167V43H36.0247V26.2H47.7607V43H45.7687V27.976ZM60.413 42.04C59.933 42.424 59.325 42.728 58.589 42.952C57.869 43.176 57.101 43.288 56.285 43.288C55.373 43.288 54.581 43.144 53.909 42.856C53.237 42.552 52.685 42.128 52.253 41.584C51.821 41.024 51.501 40.36 51.293 39.592C51.085 38.824 50.981 37.96 50.981 37C50.981 34.952 51.437 33.392 52.349 32.32C53.261 31.248 54.565 30.712 56.261 30.712C56.805 30.712 57.349 30.776 57.893 30.904C58.437 31.016 58.925 31.24 59.357 31.576C59.789 31.912 60.141 32.392 60.413 33.016C60.685 33.624 60.821 34.432 60.821 35.44C60.821 35.968 60.773 36.552 60.677 37.192H52.973C52.973 37.896 53.045 38.52 53.189 39.064C53.333 39.608 53.557 40.072 53.861 40.456C54.165 40.824 54.557 41.112 55.037 41.32C55.533 41.512 56.133 41.608 56.837 41.608C57.381 41.608 57.925 41.512 58.469 41.32C59.013 41.128 59.421 40.904 59.693 40.648L60.413 42.04ZM56.285 32.392C55.341 32.392 54.581 32.64 54.005 33.136C53.445 33.632 53.109 34.48 52.997 35.68H58.949C58.949 34.464 58.717 33.616 58.253 33.136C57.789 32.64 57.133 32.392 56.285 32.392ZM63.8405 31H65.1605L65.5205 32.44H65.6165C65.9845 31.88 66.4565 31.456 67.0325 31.168C67.6245 30.864 68.2965 30.712 69.0485 30.712C70.6485 30.712 71.8405 31.184 72.6245 32.128C73.4085 33.072 73.8005 34.616 73.8005 36.76C73.8005 37.768 73.6645 38.68 73.3925 39.496C73.1365 40.296 72.7685 40.976 72.2885 41.536C71.8085 42.096 71.2245 42.528 70.5365 42.832C69.8645 43.136 69.1125 43.288 68.2805 43.288C67.6885 43.288 67.2165 43.248 66.8645 43.168C66.5285 43.104 66.1605 42.984 65.7605 42.808V47.8H63.8405V31ZM68.6885 32.392C67.8725 32.392 67.2245 32.608 66.7445 33.04C66.2805 33.456 65.9525 34.096 65.7605 34.96V40.912C66.0485 41.136 66.3765 41.312 66.7445 41.44C67.1125 41.552 67.6005 41.608 68.2085 41.608C69.3125 41.608 70.1845 41.2 70.8245 40.384C71.4805 39.552 71.8085 38.336 71.8085 36.736C71.8085 36.08 71.7525 35.488 71.6405 34.96C71.5285 34.416 71.3445 33.96 71.0885 33.592C70.8485 33.208 70.5285 32.912 70.1285 32.704C69.7445 32.496 69.2645 32.392 68.6885 32.392ZM85.5849 42.04C85.1049 42.424 84.4969 42.728 83.7609 42.952C83.0409 43.176 82.2729 43.288 81.4569 43.288C80.5449 43.288 79.7529 43.144 79.0809 42.856C78.4089 42.552 77.8569 42.128 77.4249 41.584C76.9929 41.024 76.6729 40.36 76.4649 39.592C76.2569 38.824 76.1529 37.96 76.1529 37C76.1529 34.952 76.6089 33.392 77.5209 32.32C78.4329 31.248 79.7369 30.712 81.4329 30.712C81.9769 30.712 82.5209 30.776 83.0649 30.904C83.6089 31.016 84.0969 31.24 84.5289 31.576C84.9609 31.912 85.3129 32.392 85.5849 33.016C85.8569 33.624 85.9929 34.432 85.9929 35.44C85.9929 35.968 85.9449 36.552 85.8489 37.192H78.1449C78.1449 37.896 78.2169 38.52 78.3609 39.064C78.5049 39.608 78.7289 40.072 79.0329 40.456C79.3369 40.824 79.7289 41.112 80.2089 41.32C80.7049 41.512 81.3049 41.608 82.0089 41.608C82.5529 41.608 83.0969 41.512 83.6409 41.32C84.1849 41.128 84.5929 40.904 84.8649 40.648L85.5849 42.04ZM81.4569 32.392C80.5129 32.392 79.7529 32.64 79.1769 33.136C78.6169 33.632 78.2809 34.48 78.1689 35.68H84.1209C84.1209 34.464 83.8889 33.616 83.4249 33.136C82.9609 32.64 82.3049 32.392 81.4569 32.392ZM96.0204 32.68H90.9324V43H89.0124V31H96.0204V32.68ZM103.812 32.68H100.332C100.284 33.352 100.236 34.08 100.188 34.864C100.14 35.632 100.068 36.408 99.9721 37.192C99.8761 37.96 99.7481 38.704 99.5881 39.424C99.4281 40.128 99.2201 40.752 98.9641 41.296C98.7241 41.84 98.4201 42.28 98.0521 42.616C97.7001 42.936 97.2761 43.096 96.7801 43.096C96.4761 43.096 96.2121 43.08 95.9881 43.048C95.7641 43.016 95.5641 42.96 95.3881 42.88L95.6761 41.272C95.8681 41.336 96.0761 41.368 96.3001 41.368C96.6201 41.368 96.9081 41.232 97.1641 40.96C97.4201 40.688 97.6441 40.176 97.8361 39.424C98.0281 38.656 98.1881 37.6 98.3161 36.256C98.4441 34.912 98.5321 33.16 98.5801 31H105.732V43H103.812V32.68ZM115.402 38.032L113.554 38.32L110.386 43H108.058L110.938 38.896L111.898 38.008C111.066 37.88 110.354 37.544 109.762 37C109.186 36.456 108.898 35.72 108.898 34.792C108.898 34.072 109.018 33.456 109.258 32.944C109.514 32.432 109.874 32.008 110.338 31.672C110.802 31.336 111.354 31.096 111.994 30.952C112.634 30.792 113.354 30.712 114.154 30.712C114.746 30.712 115.298 30.752 115.81 30.832C116.322 30.912 116.826 31 117.322 31.096V43H115.402V38.032ZM115.402 32.632C115.194 32.552 114.962 32.496 114.706 32.464C114.45 32.416 114.226 32.392 114.034 32.392C113.01 32.392 112.226 32.576 111.682 32.944C111.154 33.312 110.89 33.896 110.89 34.696C110.89 35.416 111.17 35.976 111.73 36.376C112.306 36.76 113.058 36.952 113.986 36.952C114.002 36.952 114.026 36.952 114.058 36.952C114.09 36.952 114.154 36.952 114.25 36.952C114.346 36.952 114.482 36.952 114.658 36.952C114.834 36.936 115.082 36.92 115.402 36.904V32.632ZM128.161 37.696H122.737V43H120.817V31H122.737V36.016H128.161V31H130.081V43H128.161V37.696ZM137.306 38.776L137.978 41.08H138.098L138.626 38.752L140.954 31H142.898L139.346 41.776C139.074 42.56 138.802 43.32 138.53 44.056C138.274 44.792 137.986 45.448 137.666 46.024C137.346 46.6 136.986 47.056 136.586 47.392C136.186 47.744 135.722 47.92 135.194 47.92C134.618 47.92 134.146 47.84 133.778 47.68L134.114 46.024C134.322 46.104 134.522 46.144 134.714 46.144C135.162 46.144 135.594 45.904 136.01 45.424C136.426 44.96 136.77 44.152 137.042 43L132.218 31H134.426L137.306 38.776ZM152.614 32.68H148.846V43H146.926V32.68H143.158V31H152.614V32.68ZM162.008 35.896L162.08 34.408H162.008L161.024 35.944L155.624 43H154.52V31H156.44V38.32L156.368 39.736H156.464L157.4 38.248L162.8 31H163.928V43H162.008V35.896Z" fill="white"/>
<path d="M220.884 35.0881C221.465 34.496 221.457 33.5463 220.867 32.9669L211.246 23.524C210.655 22.9446 209.705 22.9548 209.124 23.5469C208.543 24.1389 208.551 25.0886 209.141 25.6681L217.694 34.0618L209.276 42.6381C208.695 43.2302 208.703 44.1799 209.293 44.7594C209.884 45.3388 210.833 45.3286 211.414 44.7365L220.884 35.0881ZM185.85 35.9047L219.827 35.5389L219.803 32.539L185.826 32.9048L185.85 35.9047Z" fill="white"/>
</svg>
